<?xml version="1.0" encoding="utf-8"?>
<!-- Generator: Adobe Illustrator 27.5.0, SVG Export Plug-In . SVG Version: 6.00 Build 0)  -->
<svg version="1.1" id="Camada_1" xmlns="http://www.w3.org/2000/svg" xmlns:xlink="http://www.w3.org/1999/xlink" x="0px" y="0px"
	 viewBox="0 0 1000 1000" style="enable-background:new 0 0 1000 1000;" xml:space="preserve">
<polygon style="fill:#2E0D41;" points="166,709.5 189.5,696 163.5,657.5 "/>
<polygon style="fill:#553171;" points="163.5,657.5 151,688 166,709.5 "/>
<polygon style="fill:#4F1268;" points="189.5,696 199,657.5 163.5,657.5 "/>
<polygon style="fill:#670053;" points="163.5,657.5 187,612.75 199,657.5 "/>
<polygon style="fill:#9E0763;" points="199,657.5 222,622.25 187,612.75 "/>
<polygon style="fill:#8D2F5F;" points="187,612.75 213,572.5 207.886,618.419 "/>
<polygon style="fill:#812990;" points="222,622.25 261,601.75 207.886,618.419 "/>
<polygon style="fill:#A4006F;" points="213,572.5 261,601.75 207.886,618.419 "/>
<polygon style="fill:#BA0646;" points="240.79,589.435 310.75,575.25 261,601.75 "/>
<polygon style="fill:#A3238E;" points="213,572.5 247.5,528.5 240.79,589.435 "/>
<polygon style="fill:#BA014E;" points="247.5,528.5 292.25,545 240.79,589.435 "/>
<polygon style="fill:#A70041;" points="310.75,575.25 292.25,545 240.79,589.435 "/>
<polygon style="fill:#E11B22;" points="292.25,545 357.25,545 310.75,575.25 "/>
<polygon style="fill:#A51048;" points="292.25,545 277.75,484.75 247.5,528.5 "/>
<polygon style="fill:#C4161C;" points="284.56,513.046 357.25,545 292.25,545 "/>
<polygon style="fill:#F37021;" points="277.75,484.75 309.25,442 284.56,513.046 "/>
<polygon style="fill:#A70E13;" points="300.633,466.796 357.25,545 284.56,513.046 "/>
<polygon style="fill:#F68B1F;" points="357.25,545 424.5,504.75 300.633,466.796 "/>
<polygon style="fill:#F04E3E;" points="309.25,442 350.092,481.951 300.633,466.796 "/>
<polygon style="fill:#FFD400;" points="350.092,481.951 464.75,461.975 424.5,504.75 "/>
<polygon style="fill:#CBDB2A;" points="424.5,504.75 524.5,529.023 464.75,461.975 "/>
<polygon style="fill:#2A709B;" points="524.5,529.023 568,545 607.75,516.75 "/>
<polygon style="fill:#00A775;" points="464.75,461.975 546.25,495.499 524.5,529.023 "/>
<polygon style="fill:#007CB2;" points="607.75,516.75 571.25,453.5 546.25,495.499 524.5,529.023 "/>
<polygon style="fill:#FBB040;" points="309.25,442 425.511,468.811 350.092,481.951 "/>
<polygon style="fill:#FFF33E;" points="464.75,461.975 412.25,411.25 424.5,468.578 "/>
<polygon style="fill:#3DBB95;" points="571.25,453.5 464.75,461.975 546.25,495.499 "/>
<polygon style="fill:#0DB14B;" points="412.25,411.25 571.25,453.5 464.75,461.975 "/>
<polygon style="fill:#FFD400;" points="412.25,411.25 309.25,442 425.511,468.811 "/>
<polygon style="fill:#00AAAD;" points="568,545 566.125,620.5 626.75,577.5 "/>
<polygon style="fill:#00A886;" points="600.5,654 626.75,577.5 566.125,620.5 "/>
<polygon style="fill:#72BF44;" points="600.5,654 569,686 566.125,620.5 "/>
<polygon style="fill:#B2D235;" points="600.5,654 600.5,682 569,686 "/>
<polygon style="fill:#FFF33E;" points="600.5,682 614.75,704.25 569,686 "/>
<polygon style="fill:#E2E419;" points="569,686 575.75,704.25 614.75,704.25 "/>
<polygon style="fill:#D7DF23;" points="600.5,682 624,691.5 614.75,704.25 "/>
<polygon style="fill:#007DC5;" points="626.75,577.5 698.75,520.75 568,545 "/>
<polygon style="fill:#009BDF;" points="607.75,516.75 698.75,520.75 568,545 "/>
<path style="fill:#00548B;" d="M698.75,520.75c1.75-1.75,44-63.75,44-63.75l-101.022,61.244L698.75,520.75z"/>
<polygon style="fill:#007DC5;" points="641.728,518.244 571.25,453.5 607.75,516.75 "/>
<polygon style="fill:#522E91;" points="742.75,457 798.25,434.5 700.5,430 "/>
<polygon style="fill:#003D7B;" points="700.5,430 641.728,518.244 742.75,457 "/>
<polygon style="fill:#0061AF;" points="571.25,453.5 700.5,430 641.728,518.244 "/>
<polygon style="fill:#7C51A1;" points="798.25,434.5 732.5,394.25 700.5,430 "/>
<polygon style="fill:#BFD730;" points="412.25,411.25 538,407 571.25,453.5 "/>
<polygon style="fill:#00929E;" points="700.5,430 538,407 571.25,453.5 "/>
<polygon style="fill:#2E0D41;" points="732.5,394.25 648.5,390 700.5,430 "/>
<polygon style="fill:#006991;" points="538,407 648.5,390 700.5,430 "/>
<polygon style="fill:#E2E419;" points="412.25,411.25 494,349.5 538,407 "/>
<polygon style="fill:#4FBFA5;" points="648.5,390 494,349.5 538,407 "/>
<polygon style="fill:#FCAF17;" points="309.25,442 354,382.5 412.25,411.25 "/>
<polygon style="fill:#FFF33E;" points="494,349.5 354,382.5 412.25,411.25 "/>
<polygon style="fill:#00AAB5;" points="494,349.5 579.5,360.5 648.5,390 "/>
<polygon style="fill:#004368;" points="648.5,390 722,358 732.5,394.25 "/>
<polygon style="fill:#911060;" points="798.25,434.5 828,427.5 809.75,415.75 "/>
<polygon style="fill:#631254;" points="828,427.5 842.75,407 809.75,415.75 "/>
<polygon style="fill:#5C2D91;" points="842.75,407 801.75,369.75 809.75,415.75 "/>
<polygon style="fill:#782B90;" points="732.5,394.25 809.75,415.75 798.25,434.5 "/>
<polygon style="fill:#AA5EA5;" points="801.75,369.75 732.5,394.25 809.75,415.75 "/>
<polygon style="fill:#AA5EA5;" points="842.75,407 842.75,389 801.75,369.75 "/>
<polygon style="fill:#7C51A1;" points="837.089,386.342 814.75,348 801.75,369.75 "/>
<polygon style="fill:#60489D;" points="722,358 769,304.75 732.5,394.25 "/>
<polygon style="fill:#6F60AA;" points="769,304.75 801.75,369.75 732.5,394.25 "/>
<polygon style="fill:#2E3192;" points="814.75,348 781.929,330.41 801.75,369.75 "/>
<polygon style="fill:#AA5EA5;" points="722,358 762.5,290.75 765.855,308.313 "/>
<polygon style="fill:#150958;" points="734.78,468.679 724.25,557.25 698.75,520.75 "/>
<polygon style="fill:#2E3192;" points="724.25,557.25 640.214,566.888 698.75,520.75 "/>
<polygon style="fill:#2E0D41;" points="724.25,557.25 748.25,592.5 640.214,566.888 "/>
<polygon style="fill:#37215E;" points="646.932,568.48 712.75,622 748.25,592.5 "/>
<polygon style="fill:#4F1268;" points="748.25,592.5 801,639.5 712.75,622 "/>
<polygon style="fill:#8E3762;" points="725.206,624.47 796.75,677.5 801,639.5 "/>
<polygon style="fill:#911060;" points="801,639.5 832.75,662 796.75,677.5 "/>
<polygon style="fill:#631254;" points="832.75,662 829.5,679.5 796.75,677.5 "/>
<polygon style="fill:#8B001D;" points="482.306,518.781 444,592.333 424.5,504.75 "/>
<polygon style="fill:#CE181E;" points="361.627,542.38 367.38,625.333 424.5,504.75 "/>
<polygon style="fill:#B11116;" points="444,592.333 367.38,625.333 424.5,504.75 "/>
<polygon style="fill:#E11B22;" points="444,592.333 420.333,642.667 367.38,625.333 "/>
<polygon style="fill:#CE181E;" points="420.333,642.667 451.333,673.667 367.38,625.333 "/>
<polygon style="fill:#A70E13;" points="451.333,673.667 453.403,699 483.333,699 "/>
<polygon style="fill:#820000;" points="451.333,673.667 482.306,677.667 483.333,699 "/>
<polygon style="fill:#BA141A;" points="367.38,625.333 418.667,686 420.068,655.667 "/>
<polygon style="fill:#94070A;" points="453.403,699 420.068,655.667 451.333,673.667 "/>
<polygon style="fill:#A70E13;" points="418.667,686 453.403,699 420.068,655.667 "/>
<polygon style="fill:#FFD400;" points="354,382.5 287,328.667 309.25,442 "/>
<polygon style="fill:#D7DF23;" points="287,328.667 191.333,356.333 233.667,312.333 "/>
<polygon style="fill:#FFF33E;" points="309.25,442 249.701,339.453 287,328.667 "/>
<polygon style="fill:#B2D235;" points="203.912,352.696 262,360.632 249.701,339.453 "/>
<polygon style="fill:#72BF44;" points="233.667,312.333 166.667,334.333 191.333,356.333 "/>
<path style="fill:#00868A;" d="M177.667,431.333c-0.667-2.667-11-97-11-97L146.333,391L177.667,431.333z"/>
<polygon style="fill:#00A775;" points="191.333,356.333 172.77,389.471 166.667,334.333 "/>
<polygon style="fill:#00AAB5;" points="177.667,431.333 170,447.333 146.333,391 "/>
</svg>
